<?xml version="1.0" encoding="utf-8"?>
<!-- Generator: Adobe Illustrator 27.0.1, SVG Export Plug-In . SVG Version: 6.00 Build 0)  -->
<svg version="1.1" xmlns="http://www.w3.org/2000/svg" xmlns:xlink="http://www.w3.org/1999/xlink" x="0px" y="0px"
	 viewBox="0 0 375 2579.1" style="enable-background:new 0 0 375 2579.1;" xml:space="preserve">
<style type="text/css">
	.st0{fill:none;stroke:#9E9E9E;stroke-width:5;stroke-miterlimit:10;}
	.st1{fill:none;stroke:#DF6A74;stroke-width:5;stroke-miterlimit:10;}
	.st2{fill:none;stroke:#DB4752;stroke-width:5;stroke-miterlimit:10;}
	.st3{fill:none;stroke:#6A6A6A;stroke-width:5;stroke-miterlimit:10;}
	.st4{fill:#6A6A6A;}
	.st5{fill:#9E9E9E;}
	.st6{fill:#DB4752;}
	.st7{fill:#DF6A74;}
	.st8{fill:none;stroke:#DF6A74;stroke-width:3.4158;stroke-miterlimit:10;}
	.st9{fill:none;stroke:#DF6A74;stroke-miterlimit:10;}
	.st10{fill:none;stroke:#6A6A6A;stroke-width:3.4183;stroke-miterlimit:10;}
	.st11{fill:none;stroke:#6A6A6A;stroke-miterlimit:10;}
	.st12{fill:none;stroke:#DB4752;stroke-width:3.4158;stroke-miterlimit:10;}
	.st13{fill:none;stroke:#DB4752;stroke-miterlimit:10;}
	.st14{fill:none;stroke:#9E9E9E;stroke-width:3.4158;stroke-miterlimit:10;}
	.st15{fill:none;stroke:#9E9E9E;stroke-miterlimit:10;}
</style>
<g id="Calque_6">
	<line class="st0" x1="0" y1="1169" x2="375.1" y2="1169"/>
	<line class="st1" x1="0" y1="1157.1" x2="375" y2="1157.1"/>
	<line class="st2" x1="0" y1="1180.9" x2="374.9" y2="1180.9"/>
</g>
<g id="Calque_5">
	<polyline class="st1" points="375,482.3 147.5,482.3 72.4,539.4 72.4,852.9 	"/>
	<polyline class="st3" points="378,426 370.4,426 295.3,483.1 295.3,782.1 	"/>
	<polyline class="st0" points="377,551.2 130.7,551.2 55.6,608.3 55.6,927.7 	"/>
	<polyline class="st2" points="375,492.5 351.8,492.5 276.6,549.5 276.6,793.1 276.6,799.1 276.6,804.3 276.6,855.9 	"/>
	<g>
		<polygon class="st4" points="-9.1,2536.1 -25.5,2542.3 150.3,2403.7 150.3,2171.1 219.6,2086.3 219.6,1823.8 224.6,1823.8 
			224.6,2088 155.3,2172.9 155.3,2405.7 154.7,2406.4 		"/>
		<path class="st5" d="M391,2540.7l-1.7-1.3c-27.5-21.3-55.1-43.2-81.8-64.5c-28.3-22.5-57.5-45.7-86.8-68.3l-1-0.8v-1.2
			c0-75.9,0-154.4-1-231.1c-16.1-21.2-33.5-42.1-50.3-62.3c-6-7.2-12.2-14.6-18.2-22l-0.6-0.7v-0.9c0-75,0-151,0-225.7l0-2.5l5,0
			l0,2.5c0,74.4,0,150.1,0,224.8c5.8,7.1,11.8,14.3,17.6,21.2c17,20.5,34.6,41.7,50.9,63.1l0.5,0.7l0,0.8c1,76.6,1,155,1,230.8
			c29,22.4,57.9,45.4,85.9,67.6c26.7,21.2,52.9,42.3,80.4,63.5L391,2540.7z"/>
		<polygon class="st6" points="318.4,2594.5 251.3,2539.9 251.3,2263.6 118.7,2112.6 118.7,1804.6 123.7,1804.6 123.7,2110.8 
			256.3,2261.7 256.3,2537.4 338.5,2606.2 		"/>
		<polygon class="st7" points="76.7,2580.5 118.7,2538.6 118.7,2261.7 251.3,2110.8 251.3,1861.9 256.3,1861.9 256.3,2112.6 
			123.7,2263.6 123.7,2540.7 84,2580.4 		"/>
	</g>
	<polyline class="st0" points="1.1,130.3 141,130.3 148,502.2 	"/>
</g>
<g id="Calque_4">
	<polyline class="st2" points="0,111.9 196,111.9 196,570.1 	"/>
	<polyline class="st1" points="0,58.2 260.3,58.2 260.3,516.4 	"/>
	<circle class="st8" cx="261.3" cy="533" r="16.6"/>
	<circle class="st9" cx="261.3" cy="533.4" r="3.7"/>
	<polyline class="st3" points="0,79.2 232,79.2 232,612.9 	"/>
	<circle class="st10" cx="232" cy="629.9" r="16.6"/>
	<circle class="st11" cx="232" cy="630.3" r="3.7"/>
	<circle class="st12" cx="196" cy="587.5" r="16.6"/>
	<circle class="st13" cx="196" cy="588" r="3.7"/>
	<circle class="st14" cx="53.6" cy="945.9" r="16.6"/>
	<circle class="st15" cx="53.6" cy="946.4" r="3.7"/>
	<circle class="st12" cx="276.1" cy="872.3" r="16.6"/>
	<circle class="st13" cx="276.1" cy="872.8" r="3.7"/>
	<circle class="st10" cx="295.7" cy="798.7" r="16.6"/>
	<circle class="st11" cx="295.7" cy="799.1" r="3.7"/>
	<circle class="st8" cx="73.9" cy="869.1" r="16.6"/>
	<circle class="st9" cx="73.9" cy="869.5" r="3.7"/>
	<line class="st2" x1="214.2" y1="955.1" x2="214.2" y2="1708.6"/>
	<line class="st1" x1="90.7" y1="1056" x2="90.7" y2="1569.5"/>
	<line class="st3" x1="127.9" y1="1026.4" x2="127.9" y2="1636.9"/>
	<line class="st0" x1="171.3" y1="905" x2="171.3" y2="1766.5"/>
	<line class="st3" x1="250" y1="1005.3" x2="250" y2="1638.6"/>
	<circle class="st8" cx="90.7" cy="1039.4" r="16.6"/>
	<circle class="st9" cx="90.7" cy="1039.9" r="3.7"/>
	<circle class="st8" cx="90" cy="1587.1" r="16.6"/>
	<circle class="st9" cx="90" cy="1587.6" r="3.7"/>
	<circle class="st14" cx="171.3" cy="888.9" r="16.6"/>
	<circle class="st15" cx="171.3" cy="889.4" r="3.7"/>
	<circle class="st14" cx="172" cy="1784.6" r="16.6"/>
	<circle class="st15" cx="172" cy="1785" r="3.7"/>
	<circle class="st12" cx="214.2" cy="939.2" r="16.6"/>
	<circle class="st13" cx="214.2" cy="939.6" r="3.7"/>
	<circle class="st12" cx="215.3" cy="1726.6" r="16.6"/>
	<circle class="st13" cx="215.3" cy="1727" r="3.7"/>
	<circle class="st10" cx="127.9" cy="1009.9" r="16.6"/>
	<circle class="st11" cx="127.9" cy="1010.3" r="3.7"/>
	<circle class="st10" cx="250" cy="988.8" r="16.6"/>
	<circle class="st11" cx="250" cy="989.2" r="3.7"/>
	<circle class="st10" cx="128.1" cy="1654.5" r="16.6"/>
	<circle class="st11" cx="128.1" cy="1654.9" r="3.7"/>
	<circle class="st10" cx="249.8" cy="1654.8" r="16.6"/>
	<circle class="st11" cx="249.8" cy="1655.3" r="3.7"/>
	<circle class="st8" cx="253.8" cy="1844.5" r="16.6"/>
	<circle class="st9" cx="253.8" cy="1844.9" r="3.7"/>
	<circle class="st12" cx="121.8" cy="1787.6" r="16.6"/>
	<circle class="st13" cx="121.8" cy="1788.1" r="3.7"/>
	<circle class="st10" cx="222.9" cy="1806.5" r="16.6"/>
	<circle class="st11" cx="222.9" cy="1806.9" r="3.7"/>
	<circle class="st14" cx="152.7" cy="1842.9" r="16.6"/>
	<circle class="st15" cx="152.7" cy="1843.4" r="3.7"/>
	<circle class="st14" cx="149" cy="518.9" r="16.6"/>
	<circle class="st15" cx="149" cy="519.3" r="3.7"/>
</g>
</svg>
